<svg xmlns="http://www.w3.org/2000/svg" viewBox="0 0 32 32" fill="currentColor"><path d="M16 7.6c2.3 0 2.6 0 3.5.1.9.1 1.4.2 1.7.3.4.2.7.4 1 .7.3.3.5.6.7 1 .1.3.2.8.3 1.7.1.9.1 1.2.1 3.5s0 2.6-.1 3.5c-.1.9-.2 1.4-.3 1.7-.2.4-.4.7-.7 1-.3.3-.6.5-1 .7-.3.1-.8.2-1.7.3-.9.1-1.2.1-3.5.1s-2.6 0-3.5-.1c-.9-.1-1.4-.2-1.7-.3-.4-.2-.7-.4-1-.7-.3-.3-.5-.6-.7-1-.1-.3-.2-.8-.3-1.7C7.6 18.6 7.6 18.3 7.6 16s0-2.6.1-3.5c.1-.9.2-1.4.3-1.7.2-.4.4-.7.7-1 .3-.3.6-.5 1-.7.3-.1.8-.2 1.7-.3C13.4 7.6 13.7 7.6 16 7.6zm0-2.6C13.7 5 13.3 5 12.4 5.1c-1 .1-1.7.2-2.3.5-.7.3-1.3.7-1.9 1.3-.6.6-1 1.2-1.3 1.9-.3.6-.4 1.3-.5 2.3C5 13.3 5 13.7 5 16s0 2.7.1 3.6c.1 1 .2 1.7.5 2.3.3.7.7 1.3 1.3 1.9.6.6 1.2 1 1.9 1.3.6.3 1.3.4 2.3.5.9.1 1.3.1 3.6.1s2.7 0 3.6-.1c1-.1 1.7-.2 2.3-.5.7-.3 1.3-.7 1.9-1.3.6-.6 1-1.2 1.3-1.9.3-.6.4-1.3.5-2.3.1-.9.1-1.3.1-3.6s0-2.7-.1-3.6c-.1-1-.2-1.7-.5-2.3-.3-.7-.7-1.3-1.3-1.9-.6-.6-1.2-1-1.9-1.3-.6-.3-1.3-.4-2.3-.5C18.7 5 18.3 5 16 5zm0 4.1a6.9 6.9 0 1 0 0 13.8 6.9 6.9 0 0 0 0-13.8zm0 11.3a4.4 4.4 0 1 1 0-8.8 4.4 4.4 0 0 1 0 8.8zm7.2-11.6a1.6 1.6 0 1 0 0 3.2 1.6 1.6 0 0 0 0-3.2z"/></svg>
