<svg xmlns="http://www.w3.org/2000/svg" viewBox="0 0 32 32" fill="none">
  <rect width="32" height="32" rx="6" fill="#191414"/>
  <path d="M16 6C10.477 6 6 10.477 6 16C6 21.523 10.477 26 16 26C21.523 26 26 21.523 26 16C26 10.477 21.523 6 16 6ZM20.5 17.5C20.5 19.1569 18.6569 20.5 16 20.5C13.3431 20.5 11.5 19.1569 11.5 17.5C11.5 15.8431 13.3431 14.5 16 14.5C18.6569 14.5 20.5 15.8431 20.5 17.5ZM16 13C14.067 13 12.5 11.433 12.5 9.5C12.5 7.567 14.067 6 16 6C17.933 6 19.5 7.567 19.5 9.5C19.5 11.433 17.933 13 16 13Z" fill="#1ED760"/>
</svg>
