<svg xmlns="http://www.w3.org/2000/svg" viewBox="0 0 168 168" fill="none">
  <circle cx="84" cy="84" r="84" fill="#1ED760"/>
  <path d="M122.1 116.2c-1.7 2.8-5.3 3.7-8.1 2-22.2-13.6-50.2-16.7-83.2-9.2-3.2.7-6.4-1.3-7.1-4.5-.7-3.2 1.3-6.4 4.5-7.1 35.6-8 66.2-4.5 90.6 10.5 2.8 1.7 3.7 5.3 2 8.3zm10.8-23.2c-2.1 3.3-6.5 4.3-9.8 2.2-25.4-15.6-64.2-20.1-94.2-11.1-3.7 1-7.5-1.1-8.5-4.8-1-3.7 1.1-7.5 4.8-8.5 33.7-9.7 75.2-5 103.7 12.2 3.3 2.1 4.3 6.5 2.2 9.8zm11.1-25.1c-30.1-17.9-79.8-19.6-108.5-10.8-4.2 1.3-8.7-1.1-10-5.3-1.3-4.2 1.1-8.7 5.3-10 31.9-9.7 85.1-7.8 119.6 12.1 4 2.3 5.3 7.4 3 11.4-2.3 4-7.4 5.3-11.4 3z" fill="#fff"/>
</svg>
